<svg xmlns="http://www.w3.org/2000/svg" viewBox="0 0 750 3158.71"><defs><style>.cls-1{fill:#ddd;}.cls-10,.cls-2,.cls-5,.cls-6,.cls-8{fill:#a8a8a8;}.cls-3{fill:#969696;}.cls-4{fill:#c6c6c6;}.cls-5{font-size:79.91px;}.cls-10,.cls-5,.cls-6,.cls-8,.cls-9{font-family:ArialMT, Arial;}.cls-6{font-size:44.95px;}.cls-7{fill:#fff;}.cls-8{font-size:63.93px;}.cls-9{font-size:32px;}.cls-10{font-size:28px;}.cls-11{fill:none;stroke:#bcbcbc;stroke-miterlimit:10;stroke-width:2px;}.cls-12{fill:#bcbcbc;}</style></defs><title>complete-mobile</title><g id="Layer_2" data-name="Layer 2"><g id="Layer_1-2" data-name="Layer 1"><rect class="cls-1" width="750" height="130"/><rect class="cls-2" x="603.6" y="39.03" width="93.89" height="9.9" rx="4.92" ry="4.92"/><rect class="cls-2" x="603.6" y="60.05" width="93.89" height="9.9" rx="4.92" ry="4.92"/><rect class="cls-2" x="603.6" y="81.07" width="93.89" height="9.9" rx="4.92" ry="4.92"/><rect class="cls-3" x="51.53" y="26.11" width="94.77" height="77.79"/><polygon class="cls-2" points="96.42 65 51.53 28.15 51.53 101.85 96.42 65"/><polygon class="cls-2" points="101.39 65 146.29 101.85 146.29 28.15 101.39 65"/><polygon class="cls-2" points="54.01 26.11 98.91 62.96 143.81 26.11 54.01 26.11"/><polygon class="cls-2" points="98.91 67.04 54.01 103.89 143.81 103.89 98.91 67.04"/><rect class="cls-4" y="132.06" width="750" height="1202"/><text class="cls-5" transform="translate(212.85 510.91)">Standard <tspan x="-59.89" y="73.91">Tememplate</tspan></text><rect class="cls-1" x="185.22" y="685" width="379.56" height="99.13" rx="15.25" ry="15.25"/><text class="cls-6" transform="translate(288.85 745.77)">Click Me</text><rect class="cls-7" y="1333.43" width="750" height="666.32"/><text class="cls-8" transform="translate(129.78 1472.83)">Standard Section</text><rect class="cls-4" y="2002.28" width="750" height="1054.47"/><text class="cls-8" transform="translate(197.33 2139.04)">Split Section</text><rect class="cls-3" x="90.83" y="2529.35" width="568.34" height="437.49"/><polygon class="cls-2" points="360.09 2748.09 90.83 2540.83 90.83 2955.36 360.09 2748.09"/><polygon class="cls-2" points="389.91 2748.09 659.17 2955.36 659.17 2540.83 389.91 2748.09"/><polygon class="cls-2" points="105.74 2529.35 375 2736.61 644.26 2529.35 105.74 2529.35"/><polygon class="cls-2" points="375 2759.57 105.74 2966.84 644.26 2966.84 375 2759.57"/><text class="cls-9" transform="translate(42 1549.66)">Lorem ipsum dolor sit amet, consectetuer <tspan x="0" y="36">adipiscing elit, sed diam nonummy nibh </tspan><tspan x="0" y="72">euismod tincidunt ut laoreet dolore magna </tspan><tspan x="0" y="108">aliquam erat volutpat. Ut wisi enim ad minim </tspan><tspan x="0" y="144">veniam, quis nostrud exerci tation ullamcorper </tspan><tspan x="0" y="180">suscipit lobortis nisl ut aliquip ex ea commodo </tspan><tspan x="0" y="216">consequat. Duis autem vel eum iriure dolor in </tspan><tspan x="0" y="252">hendrerit in vulputate velit esse molestie </tspan><tspan x="0" y="288">consequat, vel illum dolore eu feugiat nulla </tspan><tspan x="0" y="324">facilisis at vero eros et accumsan et iusto odio </tspan><tspan x="0" y="360">dignissim qui blandit.</tspan></text><rect class="cls-1" y="3053.86" width="750" height="104.85"/><text class="cls-9" transform="translate(55.5 2215.99)">Lorem ipsum dolor sit amet, consectetuer <tspan x="0" y="36">adipiscing elit, sed diam nonummy nibh </tspan><tspan x="0" y="72">euismod tincidunt ut laoreet dolore magna </tspan><tspan x="0" y="108">aliquam erat volutpat. Ut wisi enim ad minim </tspan><tspan x="0" y="144">veniam, quis nostrud exerci tation </tspan><tspan x="0" y="180">ullamcorper suscipit lobortis nisl ut aliquip ex </tspan><tspan x="0" y="216">ea commodo consequat.</tspan></text><text class="cls-10" transform="translate(67.27 3107.27)">yourdomain ©</text><line class="cls-11" x1="558.16" y1="3106.29" x2="640.5" y2="3106.29"/><text class="cls-10" transform="translate(436.79 3109.38)">Powered by T<tspan class="cls-12" x="172.74" y="0">orus</tspan></text></g></g></svg>