<svg xmlns="http://www.w3.org/2000/svg" viewBox="0 0 1919 2339.21"><defs><style>.cls-1{fill:#ddd;}.cls-2{fill:#969696;}.cls-11,.cls-3,.cls-4,.cls-6,.cls-7,.cls-9{fill:#a8a8a8;}.cls-4{font-size:33px;}.cls-10,.cls-11,.cls-4,.cls-6,.cls-7,.cls-9{font-family:ArialMT, Arial;}.cls-5{fill:#c6c6c6;}.cls-6{font-size:90px;}.cls-7{font-size:45px;}.cls-8{fill:#fff;}.cls-9{font-size:75px;}.cls-10{font-size:32px;}.cls-11{font-size:28px;}.cls-12{fill:#bcbcbc;}.cls-13{fill:none;stroke:#bcbcbc;stroke-miterlimit:10;stroke-width:2px;}</style></defs><title>complete-web</title><g id="Layer_2" data-name="Layer 2"><g id="Layer_1-2" data-name="Layer 1"><rect class="cls-1" width="1919" height="117.01"/><rect class="cls-2" x="325.29" y="24.26" width="83.72" height="67.35"/><polygon class="cls-3" points="364.95 57.93 325.29 26.03 325.29 89.84 364.95 57.93"/><polygon class="cls-3" points="369.34 57.93 409.01 89.84 409.01 26.03 369.34 57.93"/><polygon class="cls-3" points="327.48 24.26 367.15 56.17 406.81 24.26 327.48 24.26"/><polygon class="cls-3" points="367.15 59.7 327.48 91.61 406.81 91.61 367.15 59.7"/><text class="cls-4" transform="translate(1176.81 62.04)">About</text><text class="cls-4" transform="translate(1306.81 63.76)">Services</text><text class="cls-4" transform="translate(1464.81 63.76)">Contact Us</text><rect class="cls-5" y="115.74" width="1919" height="963.46"/><text class="cls-6" transform="translate(514.27 470.51)">Standard Tememplate</text><rect class="cls-1" x="769.5" y="589.43" width="380" height="99.25" rx="15.25" ry="15.25"/><text class="cls-7" transform="translate(873.25 650.27)">Click Me</text><rect class="cls-8" y="1079.31" width="1919" height="541.76"/><text class="cls-9" transform="translate(671.8 1224.77)">Standard Section</text><text class="cls-10" transform="translate(325 1303.98)">Lorem ipsum dolor sit amet, consectetuer adipiscing elit, sed diam nonummy nibh <tspan x="0" y="38.4">euismod tincidunt ut laoreet dolore magna aliquam erat volutpat. Ut wisi enim ad minim </tspan><tspan x="0" y="76.8">veniam, quis nostrud exerci tation ullamcorper suscipit lobortis nisl ut aliquip ex ea </tspan><tspan x="0" y="115.2">commodo consequat. Duis autem vel eum iriure dolor in hendrerit in vulputate velit esse </tspan><tspan x="0" y="153.6">molestie consequat, vel illum dolore eu feugiat nulla facilisis at vero eros et accumsan et </tspan><tspan x="0" y="192">iusto odio dignissim qui blandit praesenluptatum zzril delenit augue duis dolore te feugait </tspan><tspan x="0" y="230.4">nulla facilisi.</tspan></text><rect class="cls-5" y="1619.43" width="1919" height="610.52"/><text class="cls-9" transform="translate(995.5 1762.77)">Split Section</text><text class="cls-10" transform="translate(995.5 1839.98)">Lorem ipsum dolor sit amet, consectetuer <tspan x="0" y="36">adipiscing elit, sed diam nonummy nibh </tspan><tspan x="0" y="72">euismod tincidunt ut laoreet dolore </tspan><tspan x="0" y="108">magna aliquam erat volutpat. Ut wisi </tspan><tspan x="0" y="144">enim ad minim veniam, quis nostrud </tspan><tspan x="0" y="180">exerci tation ullamcorper suscipit lobortis </tspan><tspan x="0" y="216">nisl ut aliquip ex ea commodo consequat.</tspan></text><rect class="cls-2" x="329.5" y="1709.07" width="594" height="432"/><polygon class="cls-3" points="610.91 1925.07 329.5 1720.41 329.5 2129.73 610.91 1925.07"/><polygon class="cls-3" points="642.09 1925.07 923.5 2129.73 923.5 1720.41 642.09 1925.07"/><polygon class="cls-3" points="345.09 1709.07 626.5 1913.73 907.91 1709.07 345.09 1709.07"/><polygon class="cls-3" points="626.5 1936.41 345.09 2141.07 907.91 2141.07 626.5 1936.41"/><rect class="cls-1" y="2227.72" width="1919" height="111.49"/><text class="cls-11" transform="translate(300.11 2284.44)">yourdomain ©</text><text class="cls-11" transform="translate(1546.27 2286.55)">Powered by T<tspan class="cls-12" x="172.74" y="0">orus</tspan></text><line class="cls-13" x1="1708.01" y1="2287.07" x2="1771.01" y2="2287.07"/></g></g></svg>