<svg xmlns="http://www.w3.org/2000/svg" viewBox="0 0 1536 4077.23"><defs><style>.cls-1{fill:#ddd;}.cls-11,.cls-2,.cls-5,.cls-6,.cls-8,.cls-9{fill:#a8a8a8;}.cls-3{fill:#969696;}.cls-4{fill:#c6c6c6;}.cls-5{font-size:90px;}.cls-10,.cls-11,.cls-5,.cls-6,.cls-8,.cls-9{font-family:ArialMT, Arial;}.cls-6{font-size:55px;}.cls-7{fill:#fff;}.cls-8{font-size:75px;}.cls-9{font-size:86.67px;}.cls-10{font-size:32px;}.cls-11{font-size:28px;}.cls-12{fill:#bcbcbc;}</style></defs><title>complete-tablet</title><g id="Layer_2" data-name="Layer 2"><g id="Layer_1-2" data-name="Layer 1"><rect class="cls-1" width="1536" height="166.15"/><rect class="cls-2" x="1177.14" y="46.4" width="127.01" height="13.98" rx="4.96" ry="4.96"/><rect class="cls-2" x="1177.14" y="76.09" width="127.01" height="13.98" rx="4.96" ry="4.96"/><rect class="cls-2" x="1177.14" y="105.77" width="127.01" height="13.98" rx="4.96" ry="4.96"/><rect class="cls-3" x="229.32" y="40.52" width="96.35" height="85.11"/><polygon class="cls-2" points="274.96 83.08 229.32 42.75 229.32 123.4 274.96 83.08"/><polygon class="cls-2" points="280.02 83.08 325.67 123.4 325.67 42.75 280.02 83.08"/><polygon class="cls-2" points="231.84 40.52 277.49 80.84 323.14 40.52 231.84 40.52"/><polygon class="cls-2" points="277.49 85.31 231.84 125.63 323.14 125.63 277.49 85.31"/><rect class="cls-4" y="164.73" width="1536" height="1887.67"/><text class="cls-5" transform="translate(322.77 757.26)">Standard Tememplate</text><rect class="cls-1" x="535.45" y="867.73" width="465.1" height="126" rx="15.25" ry="15.25"/><text class="cls-6" transform="translate(662.58 937.03)">Click Me</text><rect class="cls-7" y="2051.31" width="1536" height="568.42"/><text class="cls-8" transform="translate(480.3 2203.57)">Standard Section</text><rect class="cls-4" y="2619.99" width="1536" height="1294.74"/><text class="cls-9" transform="translate(527.13 2771.2)">Split Section</text><rect class="cls-3" x="264" y="3041.73" width="1008" height="783"/><polygon class="cls-2" points="741.55 3433.23 264 3062.28 264 3804.19 741.55 3433.23"/><polygon class="cls-2" points="794.45 3433.23 1272 3804.19 1272 3062.28 794.45 3433.23"/><polygon class="cls-2" points="290.45 3041.73 768 3412.69 1245.55 3041.73 290.45 3041.73"/><polygon class="cls-2" points="768 3453.78 290.45 3824.73 1245.55 3824.73 768 3453.78"/><text class="cls-10" transform="translate(264 2273.8)">Lorem ipsum dolor sit amet, consectetuer adipiscing elit, sed diam <tspan x="0" y="36">nonummy nibh euismod tincidunt ut laoreet dolore magna aliquam erat </tspan><tspan x="0" y="72">volutpat. Ut wisi enim ad minim veniam, quis nostrud exerci tation </tspan><tspan x="0" y="108">ullamcorper suscipit lobortis nisl ut aliquip ex ea commodo consequat. </tspan><tspan x="0" y="144">Duis autem vel eum iriure dolor in hendrerit in vulputate velit esse </tspan><tspan x="0" y="180">molestie consequat, vel illum dolore eu feugiat nulla facilisis at vero </tspan><tspan x="0" y="216">eros et accumsan et iusto odio dignissim qui blandit praesenluptatum </tspan><tspan x="0" y="252">zzril delenit augue duis dolore te feugait nulla facilisi.</tspan></text><text class="cls-10" transform="translate(264 2839.98)">Lorem ipsum dolor sit amet, consectetuer adipiscing elit, sed diam <tspan x="0" y="36">nonummy nibh euismod tincidunt ut laoreet dolore magna aliquam erat </tspan><tspan x="0" y="72">volutpat. Ut wisi enim ad minim veniam, quis nostrud exerci tation </tspan><tspan x="0" y="108">ullamcorper suscipit lobortis nisl ut aliquip ex ea commodo consequat.</tspan></text><rect class="cls-1" y="3919.31" width="1536" height="157.92"/><text class="cls-11" transform="translate(237.5 3999.25)">yourdomain ©</text><text class="cls-11" transform="translate(1060.66 4001.36)">Powered by T<tspan class="cls-12" x="172.74" y="0">orus</tspan></text></g></g></svg>