<svg xmlns="http://www.w3.org/2000/svg" viewBox="0 0 749.41 687"><defs><style>.cls-1{fill:#fff;}.cls-2{font-size:64px;fill:#a8a8a8;}.cls-2,.cls-3{font-family:ArialMT, Arial;}.cls-3{font-size:29px;}.cls-4{letter-spacing:0.36em;}.cls-5{letter-spacing:0.36em;}.cls-6{letter-spacing:-0.04em;}.cls-7{letter-spacing:0.1em;}.cls-8{letter-spacing:0.1em;}.cls-9{letter-spacing:0.36em;}.cls-10{letter-spacing:0.36em;}.cls-11{letter-spacing:0.38em;}.cls-12{letter-spacing:0.38em;}.cls-13{letter-spacing:-0.02em;}.cls-14{letter-spacing:-0.02em;}.cls-15{letter-spacing:0em;}.cls-16{letter-spacing:0.25em;}.cls-17{letter-spacing:0.25em;}.cls-18{letter-spacing:0.08em;}.cls-19{letter-spacing:0.08em;}.cls-20{letter-spacing:0.03em;}.cls-21{letter-spacing:0.03em;}.cls-22{letter-spacing:0.28em;}.cls-23{letter-spacing:0.28em;}.cls-24{letter-spacing:-0.04em;}.cls-25{letter-spacing:-0.04em;}</style></defs><title>standard_mobile</title><g id="Layer_2" data-name="Layer 2"><g id="Layer_1-2" data-name="Layer 1"><rect class="cls-1" width="749.41" height="687"/><text class="cls-2" transform="translate(129.21 142.32)">Standard Section</text><text class="cls-3" transform="translate(114.71 206.76)">Lorem<tspan class="cls-4" x="82.2" y="0"> </tspan><tspan x="100.78" y="0">ipsum</tspan><tspan class="cls-5" x="178.13" y="0"> </tspan><tspan x="196.71" y="0">dolor</tspan><tspan class="cls-4" x="261.2" y="0"> </tspan><tspan x="279.77" y="0">sit</tspan><tspan class="cls-5" x="308.77" y="0"> </tspan><tspan x="327.35" y="0">amet,</tspan><tspan class="cls-4" x="399.88" y="0"> </tspan><tspan x="418.46" y="0">consec</tspan><tspan x="510.34" y="0">-</tspan><tspan x="0" y="34.8">tetuer</tspan><tspan class="cls-6" x="74.16" y="34.8"> </tspan><tspan x="81.12" y="34.8">adipiscing</tspan><tspan class="cls-6" x="210.09" y="34.8"> </tspan><tspan x="217.05" y="34.8">elit,</tspan><tspan class="cls-6" x="262.18" y="34.8"> </tspan><tspan x="269.14" y="34.8">sed</tspan><tspan class="cls-6" x="315.89" y="34.8"> </tspan><tspan x="322.85" y="34.8">diam</tspan><tspan class="cls-6" x="385.71" y="34.8"> </tspan><tspan x="392.67" y="34.8">nonummy </tspan><tspan x="0" y="69.6">nibh</tspan><tspan class="cls-7" x="54.83" y="69.6"> </tspan><tspan x="65.64" y="69.6">euismod</tspan><tspan class="cls-7" x="175.26" y="69.6"> </tspan><tspan x="186.07" y="69.6">tincidunt</tspan><tspan class="cls-8" x="294.09" y="69.6"> </tspan><tspan x="304.9" y="69.6">ut</tspan><tspan class="cls-7" x="329.09" y="69.6"> </tspan><tspan x="339.9" y="69.6">laoreet</tspan><tspan class="cls-7" x="428.57" y="69.6"> </tspan><tspan x="439.39" y="69.6">dolore </tspan><tspan x="0" y="104.4">magna</tspan><tspan class="cls-9" x="88.67" y="104.4"> </tspan><tspan x="107.24" y="104.4">aliquam</tspan><tspan class="cls-9" x="208.8" y="104.4"> </tspan><tspan x="227.37" y="104.4">erat</tspan><tspan class="cls-10" x="277.34" y="104.4"> </tspan><tspan x="295.91" y="104.4">volutpat.</tspan><tspan class="cls-9" x="405.53" y="104.4"> </tspan><tspan x="424.1" y="104.4">Ut</tspan><tspan class="cls-9" x="453.1" y="104.4"> </tspan><tspan x="471.67" y="104.4">wisi </tspan><tspan x="0" y="139.2">enim</tspan><tspan class="cls-11" x="62.86" y="139.2"> </tspan><tspan x="82.07" y="139.2">ad</tspan><tspan class="cls-12" x="114.33" y="139.2"> </tspan><tspan x="133.55" y="139.2">minim</tspan><tspan class="cls-11" x="210.88" y="139.2"> </tspan><tspan x="230.09" y="139.2">veniam,</tspan><tspan class="cls-12" x="331.64" y="139.2"> </tspan><tspan x="350.85" y="139.2">quis</tspan><tspan class="cls-11" x="404.05" y="139.2"> </tspan><tspan x="423.27" y="139.2">nostrud </tspan><tspan x="0" y="174">exerci</tspan><tspan class="cls-13" x="77.36" y="174"> </tspan><tspan x="84.86" y="174">tation</tspan><tspan class="cls-14" x="155.8" y="174"> </tspan><tspan class="cls-15" x="163.31" y="174">ullamcorper</tspan><tspan class="cls-14" x="314.81" y="174"> </tspan><tspan x="322.31" y="174">suscipit</tspan><tspan class="cls-13" x="419.01" y="174"> </tspan><tspan x="426.51" y="174">lobortis </tspan><tspan x="0" y="208.8">nisl</tspan><tspan class="cls-16" x="43.51" y="208.8"> </tspan><tspan x="58.71" y="208.8">ut</tspan><tspan class="cls-17" x="82.9" y="208.8"> </tspan><tspan x="98.1" y="208.8">aliquip</tspan><tspan class="cls-16" x="181.94" y="208.8"> </tspan><tspan x="197.14" y="208.8">ex</tspan><tspan class="cls-16" x="227.77" y="208.8"> </tspan><tspan x="242.97" y="208.8">ea</tspan><tspan class="cls-17" x="275.23" y="208.8"> </tspan><tspan x="290.43" y="208.8">commodo</tspan><tspan class="cls-16" x="417.76" y="208.8"> </tspan><tspan x="432.96" y="208.8">conse</tspan><tspan x="510.34" y="208.8">-</tspan><tspan x="0" y="243.6">quat.</tspan><tspan class="cls-18" x="64.5" y="243.6"> </tspan><tspan x="74.77" y="243.6">Duis</tspan><tspan class="cls-19" x="132.78" y="243.6"> </tspan><tspan x="143.05" y="243.6">autem</tspan><tspan class="cls-18" x="223.65" y="243.6"> </tspan><tspan x="233.92" y="243.6">vel</tspan><tspan class="cls-18" x="270.99" y="243.6"> </tspan><tspan x="281.26" y="243.6">eum</tspan><tspan class="cls-18" x="337.68" y="243.6"> </tspan><tspan x="347.95" y="243.6">iriure</tspan><tspan class="cls-19" x="412.4" y="243.6"> </tspan><tspan x="422.67" y="243.6">dolor</tspan><tspan class="cls-18" x="487.16" y="243.6"> </tspan><tspan x="497.43" y="243.6">in </tspan><tspan x="0" y="278.4">hendrerit</tspan><tspan class="cls-20" x="114.46" y="278.4"> </tspan><tspan x="123.35" y="278.4">in</tspan><tspan class="cls-21" x="145.92" y="278.4"> </tspan><tspan x="154.81" y="278.4">vulputate</tspan><tspan class="cls-20" x="272.51" y="278.4"> </tspan><tspan x="281.4" y="278.4">velit</tspan><tspan class="cls-21" x="332.97" y="278.4"> </tspan><tspan x="341.87" y="278.4">esse</tspan><tspan class="cls-20" x="403.12" y="278.4"> </tspan><tspan x="412.01" y="278.4">molestie </tspan><tspan x="0" y="313.2">consequat,</tspan><tspan class="cls-22" x="141.88" y="313.2"> </tspan><tspan x="158.18" y="313.2">vel</tspan><tspan class="cls-23" x="195.25" y="313.2"> </tspan><tspan x="211.55" y="313.2">illum</tspan><tspan class="cls-22" x="271.17" y="313.2"> </tspan><tspan x="287.46" y="313.2">dolore</tspan><tspan class="cls-23" x="368.08" y="313.2"> </tspan><tspan x="384.37" y="313.2">eu</tspan><tspan class="cls-22" x="416.63" y="313.2"> </tspan><tspan x="432.93" y="313.2">feugiat </tspan><tspan x="0" y="348">nulla</tspan><tspan class="cls-24" x="61.27" y="348"> </tspan><tspan x="68.09" y="348">facilisis</tspan><tspan class="cls-25" x="161.54" y="348"> </tspan><tspan x="168.36" y="348">at</tspan><tspan class="cls-24" x="192.55" y="348"> </tspan><tspan x="199.36" y="348">vero</tspan><tspan class="cls-25" x="255.78" y="348"> </tspan><tspan x="262.59" y="348">eros</tspan><tspan class="cls-24" x="319.01" y="348"> </tspan><tspan x="325.82" y="348">et</tspan><tspan class="cls-25" x="350.01" y="348"> </tspan><tspan x="356.83" y="348">accumsan</tspan><tspan class="cls-24" x="489" y="348"> </tspan><tspan x="495.81" y="348">et </tspan><tspan x="0" y="382.8">iusto odio dignissim qui blandit.</tspan></text></g></g></svg>