<svg xmlns="http://www.w3.org/2000/svg" viewBox="0 0 2049.34 986"><defs><style>.cls-1{fill:#fff;}.cls-2{font-size:115px;fill:#a8a8a8;}.cls-2,.cls-3{font-family:ArialMT, Arial;}.cls-3{font-size:52.11px;}.cls-4{letter-spacing:0.07em;}.cls-5{letter-spacing:0.07em;}.cls-6{letter-spacing:0.07em;}.cls-7{letter-spacing:0.08em;}.cls-8{letter-spacing:0.08em;}.cls-9{letter-spacing:0em;}.cls-10{letter-spacing:0.08em;}.cls-11{letter-spacing:0.17em;}.cls-12{letter-spacing:0.17em;}.cls-13{letter-spacing:0.15em;}.cls-14{letter-spacing:0.15em;}.cls-15{letter-spacing:0.15em;}.cls-16{letter-spacing:0.02em;}.cls-17{letter-spacing:0.02em;}.cls-18{letter-spacing:0.02em;}.cls-19{letter-spacing:-0.01em;}.cls-20{letter-spacing:-0.01em;}.cls-21{letter-spacing:-0.01em;}</style></defs><title>standrad_tablet</title><g id="Layer_2" data-name="Layer 2"><g id="Layer_1-2" data-name="Layer 1"><rect class="cls-1" width="2049.34" height="986"/><text class="cls-2" transform="translate(583.53 245.74)">Standard Section</text><text class="cls-3" transform="translate(245.67 378.54)">Lorem<tspan class="cls-4" x="147.71" y="0"> </tspan><tspan x="166.02" y="0">ipsum</tspan><tspan class="cls-5" x="305.02" y="0"> </tspan><tspan x="323.33" y="0">dolor</tspan><tspan class="cls-4" x="439.21" y="0"> </tspan><tspan x="457.52" y="0">sit</tspan><tspan class="cls-5" x="509.63" y="0"> </tspan><tspan x="527.94" y="0">amet,</tspan><tspan class="cls-4" x="658.27" y="0"> </tspan><tspan x="676.58" y="0">consectetuer</tspan><tspan class="cls-5" x="974.94" y="0"> </tspan><tspan x="993.25" y="0">adipiscing</tspan><tspan class="cls-5" x="1225" y="0"> </tspan><tspan x="1243.32" y="0">elit,</tspan><tspan class="cls-6" x="1324.41" y="0"> </tspan><tspan x="1342.72" y="0">sed</tspan><tspan class="cls-5" x="1426.74" y="0"> </tspan><tspan x="1445.05" y="0">diam </tspan><tspan x="0" y="62.53">nonummy</tspan><tspan class="cls-7" x="228.8" y="62.53"> </tspan><tspan x="247.57" y="62.53">nibh</tspan><tspan class="cls-7" x="346.09" y="62.53"> </tspan><tspan x="364.86" y="62.53">euismod</tspan><tspan class="cls-8" x="561.82" y="62.53"> </tspan><tspan x="580.59" y="62.53">tincidunt</tspan><tspan class="cls-7" x="774.68" y="62.53"> </tspan><tspan class="cls-9" x="793.45" y="62.53">ut</tspan><tspan class="cls-8" x="836.91" y="62.53"> </tspan><tspan x="855.68" y="62.53">laoreet</tspan><tspan class="cls-8" x="1015.01" y="62.53"> </tspan><tspan x="1033.78" y="62.53">dolore</tspan><tspan class="cls-8" x="1178.64" y="62.53"> </tspan><tspan x="1197.4" y="62.53">magna</tspan><tspan class="cls-10" x="1356.74" y="62.53"> </tspan><tspan x="1375.51" y="62.53">aliquam </tspan><tspan x="0" y="125.07">erat</tspan><tspan class="cls-11" x="89.79" y="125.07"> </tspan><tspan x="112.95" y="125.07">volutpat.</tspan><tspan class="cls-12" x="309.94" y="125.07"> </tspan><tspan x="333.09" y="125.07">Ut</tspan><tspan class="cls-11" x="385.2" y="125.07"> </tspan><tspan x="408.35" y="125.07">wisi</tspan><tspan class="cls-12" x="495.2" y="125.07"> </tspan><tspan x="518.35" y="125.07">enim</tspan><tspan class="cls-11" x="631.3" y="125.07"> </tspan><tspan x="654.45" y="125.07">ad</tspan><tspan class="cls-12" x="712.41" y="125.07"> </tspan><tspan x="735.56" y="125.07">minim</tspan><tspan class="cls-12" x="874.52" y="125.07"> </tspan><tspan x="897.67" y="125.07">veniam,</tspan><tspan class="cls-12" x="1080.13" y="125.07"> </tspan><tspan x="1103.28" y="125.07">quis</tspan><tspan class="cls-12" x="1198.88" y="125.07"> </tspan><tspan x="1222.03" y="125.07">nostrud</tspan><tspan class="cls-12" x="1395.84" y="125.07"> </tspan><tspan x="1418.99" y="125.07">exerci </tspan><tspan x="0" y="187.6">tation</tspan><tspan class="cls-13" x="127.48" y="187.6"> </tspan><tspan x="149.97" y="187.6">ullamcorper</tspan><tspan class="cls-14" x="422.2" y="187.6"> </tspan><tspan x="444.7" y="187.6">suscipit</tspan><tspan class="cls-13" x="618.46" y="187.6"> </tspan><tspan x="640.95" y="187.6">lobortis</tspan><tspan class="cls-13" x="808.93" y="187.6"> </tspan><tspan class="cls-9" x="831.43" y="187.6">nisl</tspan><tspan class="cls-15" x="909.62" y="187.6"> </tspan><tspan x="932.11" y="187.6">ut</tspan><tspan class="cls-15" x="975.57" y="187.6"> </tspan><tspan x="998.06" y="187.6">aliquip</tspan><tspan class="cls-14" x="1148.72" y="187.6"> </tspan><tspan x="1171.21" y="187.6">ex</tspan><tspan class="cls-15" x="1226.25" y="187.6"> </tspan><tspan x="1248.74" y="187.6">ea</tspan><tspan class="cls-14" x="1306.71" y="187.6"> </tspan><tspan x="1329.2" y="187.6">commodo </tspan><tspan x="0" y="250.13">consequat.</tspan><tspan class="cls-16" x="254.96" y="250.13"> </tspan><tspan x="270.56" y="250.13">Duis</tspan><tspan class="cls-17" x="374.8" y="250.13"> </tspan><tspan x="390.4" y="250.13">autem</tspan><tspan class="cls-16" x="535.23" y="250.13"> </tspan><tspan x="550.83" y="250.13">vel</tspan><tspan class="cls-17" x="617.45" y="250.13"> </tspan><tspan x="633.05" y="250.13">eum</tspan><tspan class="cls-16" x="734.42" y="250.13"> </tspan><tspan x="750.02" y="250.13">iriure</tspan><tspan class="cls-16" x="865.84" y="250.13"> </tspan><tspan x="881.44" y="250.13">dolor</tspan><tspan class="cls-16" x="997.32" y="250.13"> </tspan><tspan x="1012.92" y="250.13">in</tspan><tspan class="cls-16" x="1053.48" y="250.13"> </tspan><tspan x="1069.08" y="250.13">hendrerit</tspan><tspan class="cls-18" x="1274.74" y="250.13"> </tspan><tspan x="1290.34" y="250.13">in</tspan><tspan class="cls-16" x="1330.9" y="250.13"> </tspan><tspan x="1346.5" y="250.13">vulputate </tspan><tspan x="0" y="312.66">velit</tspan><tspan class="cls-19" x="92.67" y="312.66"> </tspan><tspan x="106.82" y="312.66">esse</tspan><tspan class="cls-20" x="216.9" y="312.66"> </tspan><tspan x="231.05" y="312.66">molestie</tspan><tspan class="cls-19" x="425.09" y="312.66"> </tspan><tspan x="439.25" y="312.66">consequat,</tspan><tspan class="cls-19" x="694.2" y="312.66"> </tspan><tspan x="708.36" y="312.66">vel</tspan><tspan class="cls-20" x="774.97" y="312.66"> </tspan><tspan x="789.13" y="312.66">illum</tspan><tspan class="cls-19" x="896.25" y="312.66"> </tspan><tspan x="910.41" y="312.66">dolore</tspan><tspan class="cls-19" x="1055.26" y="312.66"> </tspan><tspan x="1069.42" y="312.66">eu</tspan><tspan class="cls-19" x="1127.38" y="312.66"> </tspan><tspan x="1141.54" y="312.66">feugiat</tspan><tspan class="cls-21" x="1297.99" y="312.66"> </tspan><tspan x="1312.15" y="312.66">nulla</tspan><tspan class="cls-19" x="1422.25" y="312.66"> </tspan><tspan x="1436.4" y="312.66">facili</tspan><tspan x="1540.65" y="312.66">-</tspan><tspan x="0" y="375.2">sis at vero eros et accumsan et iusto odio dignissim qui blandit.</tspan></text></g></g></svg>