<svg xmlns="http://www.w3.org/2000/svg" viewBox="0 0 1280 616"><defs><style>.cls-1{fill:#fff;}.cls-2{font-size:64px;fill:#a8a8a8;}.cls-2,.cls-3{font-family:ArialMT, Arial;}.cls-3{font-size:29px;}.cls-4{letter-spacing:0.11em;}.cls-5{letter-spacing:0.11em;}.cls-6{letter-spacing:0em;}.cls-7{letter-spacing:0.11em;}.cls-8{letter-spacing:0.11em;}.cls-9{letter-spacing:0.11em;}.cls-10{letter-spacing:0.07em;}.cls-11{letter-spacing:0.07em;}.cls-12{letter-spacing:0em;}.cls-13{letter-spacing:-0.05em;}.cls-14{letter-spacing:-0.05em;}.cls-15{letter-spacing:-0.02em;}.cls-16{letter-spacing:-0.02em;}.cls-17{letter-spacing:-0.02em;}.cls-18{letter-spacing:0.09em;}.cls-19{letter-spacing:0.09em;}</style></defs><title>web_secton_standard</title><g id="Layer_2" data-name="Layer 2"><g id="Layer_1-2" data-name="Layer 1"><rect class="cls-1" width="1280" height="616"/><text class="cls-2" transform="translate(394.5 170.82)">Standard Section</text><text class="cls-3" transform="translate(132 258.76)">Lorem<tspan class="cls-4" x="82.2" y="0"> </tspan><tspan x="93.53" y="0">ipsum</tspan><tspan class="cls-5" x="170.89" y="0"> </tspan><tspan x="182.23" y="0">dolor</tspan><tspan class="cls-4" x="246.71" y="0"> </tspan><tspan x="258.05" y="0">sit</tspan><tspan class="cls-5" x="287.05" y="0"> </tspan><tspan x="298.38" y="0">amet,</tspan><tspan class="cls-4" x="370.91" y="0"> </tspan><tspan x="382.24" y="0">consectetuer</tspan><tspan class="cls-4" x="548.29" y="0"> </tspan><tspan class="cls-6" x="559.62" y="0">adipiscing</tspan><tspan class="cls-4" x="688.59" y="0"> </tspan><tspan x="699.93" y="0">elit,</tspan><tspan class="cls-4" x="745.06" y="0"> </tspan><tspan x="756.39" y="0">sed</tspan><tspan class="cls-4" x="803.15" y="0"> </tspan><tspan x="814.48" y="0">diam</tspan><tspan class="cls-7" x="877.34" y="0"> </tspan><tspan x="888.68" y="0">nonummy </tspan><tspan x="0" y="34.8">nibh</tspan><tspan class="cls-8" x="54.83" y="34.8"> </tspan><tspan x="66" y="34.8">euismod</tspan><tspan class="cls-9" x="175.62" y="34.8"> </tspan><tspan x="186.79" y="34.8">tincidunt</tspan><tspan class="cls-8" x="294.8" y="34.8"> </tspan><tspan x="305.98" y="34.8">ut</tspan><tspan class="cls-8" x="330.16" y="34.8"> </tspan><tspan x="341.34" y="34.8">laoreet</tspan><tspan class="cls-8" x="430.01" y="34.8"> </tspan><tspan x="441.18" y="34.8">dolore</tspan><tspan class="cls-9" x="521.8" y="34.8"> </tspan><tspan x="532.97" y="34.8">magna</tspan><tspan class="cls-8" x="621.64" y="34.8"> </tspan><tspan x="632.82" y="34.8">aliquam</tspan><tspan class="cls-8" x="734.38" y="34.8"> </tspan><tspan x="745.55" y="34.8">erat</tspan><tspan class="cls-8" x="795.52" y="34.8"> </tspan><tspan x="806.7" y="34.8">volutpat.</tspan><tspan class="cls-8" x="916.33" y="34.8"> </tspan><tspan x="927.5" y="34.8">Ut</tspan><tspan class="cls-8" x="956.5" y="34.8"> </tspan><tspan x="967.67" y="34.8">wisi </tspan><tspan x="0" y="69.6">enim</tspan><tspan class="cls-10" x="62.86" y="69.6"> </tspan><tspan x="73.07" y="69.6">ad</tspan><tspan class="cls-10" x="105.32" y="69.6"> </tspan><tspan x="115.53" y="69.6">minim</tspan><tspan class="cls-11" x="192.86" y="69.6"> </tspan><tspan x="203.07" y="69.6">veniam,</tspan><tspan class="cls-10" x="304.62" y="69.6"> </tspan><tspan x="314.83" y="69.6">quis</tspan><tspan class="cls-10" x="368.03" y="69.6"> </tspan><tspan x="378.24" y="69.6">nostrud</tspan><tspan class="cls-10" x="474.96" y="69.6"> </tspan><tspan x="485.17" y="69.6">exerci</tspan><tspan class="cls-10" x="562.53" y="69.6"> </tspan><tspan class="cls-12" x="572.74" y="69.6">tation</tspan><tspan class="cls-10" x="643.69" y="69.6"> </tspan><tspan x="653.9" y="69.6">ullamcorper</tspan><tspan class="cls-10" x="805.4" y="69.6"> </tspan><tspan x="815.61" y="69.6">suscipit</tspan><tspan class="cls-10" x="912.31" y="69.6"> </tspan><tspan x="922.52" y="69.6">lobortis </tspan><tspan x="0" y="104.4">nisl</tspan><tspan class="cls-13" x="43.51" y="104.4"> </tspan><tspan x="49.99" y="104.4">ut</tspan><tspan class="cls-13" x="74.18" y="104.4"> </tspan><tspan x="80.66" y="104.4">aliquip</tspan><tspan class="cls-14" x="164.5" y="104.4"> </tspan><tspan x="170.98" y="104.4">ex</tspan><tspan class="cls-13" x="201.61" y="104.4"> </tspan><tspan x="208.09" y="104.4">ea</tspan><tspan class="cls-13" x="240.34" y="104.4"> </tspan><tspan x="246.82" y="104.4">commodo</tspan><tspan class="cls-13" x="374.15" y="104.4"> </tspan><tspan x="380.63" y="104.4">consequat.</tspan><tspan class="cls-13" x="522.51" y="104.4"> </tspan><tspan x="528.99" y="104.4">Duis</tspan><tspan class="cls-13" x="587.01" y="104.4"> </tspan><tspan x="593.49" y="104.4">autem</tspan><tspan class="cls-13" x="674.09" y="104.4"> </tspan><tspan x="680.57" y="104.4">vel</tspan><tspan class="cls-13" x="717.64" y="104.4"> </tspan><tspan x="724.12" y="104.4">eum</tspan><tspan class="cls-13" x="780.53" y="104.4"> </tspan><tspan x="787.01" y="104.4">iriure</tspan><tspan class="cls-13" x="851.47" y="104.4"> </tspan><tspan x="857.95" y="104.4">dolor</tspan><tspan class="cls-13" x="922.43" y="104.4"> </tspan><tspan x="928.91" y="104.4">in</tspan><tspan class="cls-13" x="951.49" y="104.4"> </tspan><tspan x="957.96" y="104.4">hen</tspan><tspan x="1006.35" y="104.4">-</tspan><tspan x="0" y="139.2">drerit</tspan><tspan class="cls-15" x="66.07" y="139.2"> </tspan><tspan x="73.49" y="139.2">in</tspan><tspan class="cls-15" x="96.06" y="139.2"> </tspan><tspan x="103.49" y="139.2">vulputate</tspan><tspan class="cls-15" x="221.19" y="139.2"> </tspan><tspan x="228.61" y="139.2">velit</tspan><tspan class="cls-15" x="280.18" y="139.2"> </tspan><tspan x="287.6" y="139.2">esse</tspan><tspan class="cls-15" x="348.86" y="139.2"> </tspan><tspan x="356.28" y="139.2">molestie</tspan><tspan class="cls-16" x="464.26" y="139.2"> </tspan><tspan x="471.69" y="139.2">consequat,</tspan><tspan class="cls-16" x="613.57" y="139.2"> </tspan><tspan x="620.99" y="139.2">vel</tspan><tspan class="cls-17" x="658.06" y="139.2"> </tspan><tspan x="665.49" y="139.2">illum</tspan><tspan class="cls-16" x="725.1" y="139.2"> </tspan><tspan x="732.52" y="139.2">dolore</tspan><tspan class="cls-17" x="813.14" y="139.2"> </tspan><tspan x="820.56" y="139.2">eu</tspan><tspan class="cls-16" x="852.82" y="139.2"> </tspan><tspan x="860.24" y="139.2">feugiat</tspan><tspan class="cls-17" x="947.31" y="139.2"> </tspan><tspan x="954.73" y="139.2">nulla </tspan><tspan x="0" y="174">facilisis</tspan><tspan class="cls-18" x="93.46" y="174"> </tspan><tspan x="104.24" y="174">at</tspan><tspan class="cls-19" x="128.43" y="174"> </tspan><tspan x="139.21" y="174">vero</tspan><tspan class="cls-18" x="195.63" y="174"> </tspan><tspan x="206.41" y="174">eros</tspan><tspan class="cls-19" x="262.83" y="174"> </tspan><tspan x="273.61" y="174">et</tspan><tspan class="cls-18" x="297.8" y="174"> </tspan><tspan x="308.58" y="174">accumsan</tspan><tspan class="cls-19" x="440.75" y="174"> </tspan><tspan x="451.54" y="174">et</tspan><tspan class="cls-18" x="475.72" y="174"> </tspan><tspan x="486.51" y="174">iusto</tspan><tspan class="cls-18" x="547.76" y="174"> </tspan><tspan x="558.55" y="174">odio</tspan><tspan class="cls-18" x="613.38" y="174"> </tspan><tspan x="624.16" y="174">dignissim</tspan><tspan class="cls-18" x="745.04" y="174"> </tspan><tspan x="755.82" y="174">qui</tspan><tspan class="cls-18" x="794.52" y="174"> </tspan><tspan x="805.31" y="174">blandit</tspan><tspan class="cls-18" x="890.76" y="174"> </tspan><tspan x="901.55" y="174">praesen</tspan><tspan x="1006.35" y="174">-</tspan><tspan x="0" y="208.8">luptatum zzril delenit augue duis dolore te feugait nulla facilisi.</tspan></text></g></g></svg>