<?xml version="1.0" encoding="utf-8"?>
<!-- Generator: Adobe Illustrator 22.1.0, SVG Export Plug-In . SVG Version: 6.00 Build 0)  -->
<svg version="1.1" id="Layer_1" xmlns="http://www.w3.org/2000/svg" xmlns:xlink="http://www.w3.org/1999/xlink" x="0px" y="0px"
	 viewBox="0 0 750 1019" style="enable-background:new 0 0 750 1019;" xml:space="preserve">
<style type="text/css">
	.st0{fill:#C6C6C6;}
	.st1{fill:#A8A8A8;}
	.st2{font-family:'ArialMT';}
	.st3{font-size:64px;}
	.st4{fill:#969696;}
	.st5{fill:none;}
	.st6{font-size:29px;}
	.st7{letter-spacing:7;}
	.st8{letter-spacing:-1;}
	.st9{letter-spacing:5;}
	.st10{letter-spacing:4;}
	.st11{letter-spacing:1;}
</style>
<title>Asset 9</title>
<g id="Layer_2_1_">
	<g id="Layer_1-2">
		<rect x="0.3" class="st0" width="749.4" height="1019"/>
		<text transform="matrix(1 0 0 1 197.1225 142.32)" class="st1 st2 st3">Split Section</text>
		<rect x="90.5" y="460" class="st4" width="569" height="438"/>
		<polygon class="st1" points="360.1,679 90.5,471.5 90.5,886.5 		"/>
		<polygon class="st1" points="389.9,679 659.5,886.5 659.5,471.5 		"/>
		<polygon class="st1" points="105.4,460 375,667.5 644.6,460 		"/>
		<polygon class="st1" points="375,690.5 105.4,898 644.6,898 		"/>
	</g>
</g>
<rect x="90.5" y="183" class="st5" width="569" height="241"/>
<text transform="matrix(1 0 0 1 90.4975 203.7637)"><tspan x="0" y="0" class="st2 st6">Lorem</tspan><tspan x="82.2" y="0" class="st2 st6 st7"> </tspan><tspan x="97.7" y="0" class="st2 st6">ipsum</tspan><tspan x="175" y="0" class="st2 st6 st7"> </tspan><tspan x="190.5" y="0" class="st2 st6">dolor</tspan><tspan x="255" y="0" class="st2 st6 st7"> </tspan><tspan x="270.5" y="0" class="st2 st6">sit</tspan><tspan x="299.5" y="0" class="st2 st6 st7"> </tspan><tspan x="315" y="0" class="st2 st6">amet,</tspan><tspan x="387.5" y="0" class="st2 st6 st7"> </tspan><tspan x="403" y="0" class="st2 st6">consectetuer </tspan><tspan x="0" y="34.8" class="st2 st6">adipiscing</tspan><tspan x="129" y="34.8" class="st2 st6 st8"> </tspan><tspan x="135.7" y="34.8" class="st2 st6">elit,</tspan><tspan x="180.8" y="34.8" class="st2 st6 st8"> </tspan><tspan x="187.5" y="34.8" class="st2 st6">sed</tspan><tspan x="234.3" y="34.8" class="st2 st6 st8"> </tspan><tspan x="241" y="34.8" class="st2 st6">diam</tspan><tspan x="303.8" y="34.8" class="st2 st6 st8"> </tspan><tspan x="310.6" y="34.8" class="st2 st6">nonummy</tspan><tspan x="437.9" y="34.8" class="st2 st6 st8"> </tspan><tspan x="444.6" y="34.8" class="st2 st6">nibh</tspan><tspan x="499.4" y="34.8" class="st2 st6 st8"> </tspan><tspan x="506.1" y="34.8" class="st2 st6">euis</tspan><tspan x="559.3" y="34.8" class="st2 st6">-</tspan><tspan x="0" y="69.6" class="st2 st6">mod</tspan><tspan x="56.4" y="69.6" class="st2 st6 st9"> </tspan><tspan x="70.4" y="69.6" class="st2 st6">tincidunt</tspan><tspan x="178.4" y="69.6" class="st2 st6 st9"> </tspan><tspan x="192.3" y="69.6" class="st2 st6">ut</tspan><tspan x="216.5" y="69.6" class="st2 st6 st9"> </tspan><tspan x="230.5" y="69.6" class="st2 st6">laoreet</tspan><tspan x="319.2" y="69.6" class="st2 st6 st9"> </tspan><tspan x="333.1" y="69.6" class="st2 st6">dolore</tspan><tspan x="413.7" y="69.6" class="st2 st6 st9"> </tspan><tspan x="427.7" y="69.6" class="st2 st6">magna</tspan><tspan x="516.4" y="69.6" class="st2 st6 st9"> </tspan><tspan x="530.3" y="69.6" class="st2 st6">ali</tspan><tspan x="559.3" y="69.6" class="st2 st6">-</tspan><tspan x="0" y="104.4" class="st2 st6">quam</tspan><tspan x="72.5" y="104.4" class="st2 st6 st10"> </tspan><tspan x="85" y="104.4" class="st2 st6">erat</tspan><tspan x="135" y="104.4" class="st2 st6 st10"> </tspan><tspan x="147.4" y="104.4" class="st2 st6">volutpat.</tspan><tspan x="257" y="104.4" class="st2 st6 st10"> </tspan><tspan x="269.5" y="104.4" class="st2 st6">Ut</tspan><tspan x="298.5" y="104.4" class="st2 st6 st10"> </tspan><tspan x="310.9" y="104.4" class="st2 st6">wisi</tspan><tspan x="359.2" y="104.4" class="st2 st6 st10"> </tspan><tspan x="371.7" y="104.4" class="st2 st6">enim</tspan><tspan x="434.5" y="104.4" class="st2 st6 st10"> </tspan><tspan x="447" y="104.4" class="st2 st6">ad</tspan><tspan x="479.2" y="104.4" class="st2 st6 st10"> </tspan><tspan x="491.7" y="104.4" class="st2 st6">minim </tspan><tspan x="0" y="139.2" class="st2 st6">veniam,</tspan><tspan x="101.5" y="139.2" class="st2 st6 st8"> </tspan><tspan x="108.3" y="139.2" class="st2 st6">quis</tspan><tspan x="161.5" y="139.2" class="st2 st6 st8"> </tspan><tspan x="168.3" y="139.2" class="st2 st6">nostrud</tspan><tspan x="265" y="139.2" class="st2 st6 st8"> </tspan><tspan x="271.8" y="139.2" class="st2 st6">exerci</tspan><tspan x="349.1" y="139.2" class="st2 st6 st8"> </tspan><tspan x="355.9" y="139.2" class="st2 st6">tation</tspan><tspan x="426.9" y="139.2" class="st2 st6 st8"> </tspan><tspan x="433.6" y="139.2" class="st2 st6">ullamcorp</tspan><tspan x="559.3" y="139.2" class="st2 st6">-</tspan><tspan x="0" y="174" class="st2 st6">er</tspan><tspan x="25.8" y="174" class="st2 st6 st11"> </tspan><tspan x="35.1" y="174" class="st2 st6">suscipit</tspan><tspan x="131.8" y="174" class="st2 st6 st11"> </tspan><tspan x="141" y="174" class="st2 st6">lobortis</tspan><tspan x="234.5" y="174" class="st2 st6 st11"> </tspan><tspan x="243.8" y="174" class="st2 st6">nisl</tspan><tspan x="287.3" y="174" class="st2 st6 st11"> </tspan><tspan x="296.6" y="174" class="st2 st6">ut</tspan><tspan x="320.8" y="174" class="st2 st6 st11"> </tspan><tspan x="330" y="174" class="st2 st6">aliquip</tspan><tspan x="413.9" y="174" class="st2 st6 st11"> </tspan><tspan x="423.1" y="174" class="st2 st6">ex</tspan><tspan x="453.8" y="174" class="st2 st6 st11"> </tspan><tspan x="463" y="174" class="st2 st6">ea</tspan><tspan x="495.3" y="174" class="st2 st6 st11"> </tspan><tspan x="504.6" y="174" class="st2 st6">com</tspan><tspan x="559.3" y="174" class="st2 st6">-</tspan><tspan x="0" y="208.8" class="st2 st6">modo consequat.</tspan></text>
</svg>
