<svg xmlns="http://www.w3.org/2000/svg" viewBox="0 0 2047.34 2123.23"><defs><style>.cls-1{fill:#c6c6c6;}.cls-2{font-size:115px;}.cls-2,.cls-4{fill:#a8a8a8;}.cls-2,.cls-5{font-family:ArialMT, Arial;}.cls-3{fill:#969696;}.cls-5{font-size:52.11px;}.cls-6{letter-spacing:0.07em;}.cls-7{letter-spacing:0.07em;}.cls-8{letter-spacing:0.07em;}.cls-9{letter-spacing:0.08em;}.cls-10{letter-spacing:0em;}.cls-11{letter-spacing:0.08em;}.cls-12{letter-spacing:0.17em;}.cls-13{letter-spacing:0em;}.cls-14{letter-spacing:0.17em;}.cls-15{letter-spacing:0.15em;}.cls-16{letter-spacing:0.15em;}.cls-17{letter-spacing:0.15em;}</style></defs><title>split_tablet</title><g id="Layer_2" data-name="Layer 2"><g id="Layer_1-2" data-name="Layer 1"><rect class="cls-1" width="2047.34" height="2123.23"/><text class="cls-2" transform="translate(704.04 266.47)">Split Section</text><rect class="cls-3" x="244.02" y="721.92" width="1559.31" height="1200.31"/><polygon class="cls-4" points="982.75 1322.07 244.02 753.41 244.02 1890.73 982.75 1322.07"/><polygon class="cls-4" points="1064.59 1322.07 1803.33 1890.73 1803.33 753.41 1064.59 1322.07"/><polygon class="cls-4" points="284.93 721.92 1023.67 1290.58 1762.41 721.92 284.93 721.92"/><polygon class="cls-4" points="1023.67 1353.57 284.93 1922.23 1762.41 1922.23 1023.67 1353.57"/><text class="cls-5" transform="translate(244.55 394.1)">Lorem<tspan class="cls-6" x="147.71" y="0"> </tspan><tspan x="166.04" y="0">ipsum</tspan><tspan class="cls-7" x="305.05" y="0"> </tspan><tspan x="323.39" y="0">dolor</tspan><tspan class="cls-6" x="439.26" y="0"> </tspan><tspan x="457.6" y="0">sit</tspan><tspan class="cls-7" x="509.71" y="0"> </tspan><tspan x="528.05" y="0">amet,</tspan><tspan class="cls-6" x="658.38" y="0"> </tspan><tspan x="676.72" y="0">consectetuer</tspan><tspan class="cls-8" x="975.08" y="0"> </tspan><tspan x="993.42" y="0">adipiscing</tspan><tspan class="cls-7" x="1225.17" y="0"> </tspan><tspan x="1243.51" y="0">elit,</tspan><tspan class="cls-7" x="1324.6" y="0"> </tspan><tspan x="1342.94" y="0">sed</tspan><tspan class="cls-8" x="1426.96" y="0"> </tspan><tspan x="1445.29" y="0">diam </tspan><tspan x="0" y="62.53">nonummy</tspan><tspan class="cls-9" x="228.8" y="62.53"> </tspan><tspan x="247.6" y="62.53">nibh</tspan><tspan class="cls-9" x="346.12" y="62.53"> </tspan><tspan x="364.92" y="62.53">euismod</tspan><tspan class="cls-9" x="561.89" y="62.53"> </tspan><tspan x="580.68" y="62.53">tincidunt</tspan><tspan class="cls-9" x="774.78" y="62.53"> </tspan><tspan x="793.58" y="62.53">ut</tspan><tspan class="cls-9" x="837.03" y="62.53"> </tspan><tspan class="cls-10" x="855.83" y="62.53">laoreet</tspan><tspan class="cls-9" x="1015.17" y="62.53"> </tspan><tspan x="1033.97" y="62.53">dolore</tspan><tspan class="cls-11" x="1178.82" y="62.53"> </tspan><tspan x="1197.62" y="62.53">magna</tspan><tspan class="cls-9" x="1356.95" y="62.53"> </tspan><tspan x="1375.75" y="62.53">aliquam </tspan><tspan x="0" y="125.07">erat</tspan><tspan class="cls-12" x="89.79" y="125.07"> </tspan><tspan x="112.97" y="125.07">volutpat.</tspan><tspan class="cls-12" x="309.96" y="125.07"> </tspan><tspan x="333.14" y="125.07">Ut</tspan><tspan class="cls-12" x="385.25" y="125.07"> </tspan><tspan x="408.43" y="125.07">wisi</tspan><tspan class="cls-12" x="495.27" y="125.07"> </tspan><tspan x="518.45" y="125.07">enim</tspan><tspan class="cls-12" x="631.4" y="125.07"> </tspan><tspan x="654.57" y="125.07">ad</tspan><tspan class="cls-12" x="712.53" y="125.07"> </tspan><tspan x="735.71" y="125.07">minim</tspan><tspan class="cls-12" x="874.66" y="125.07"> </tspan><tspan class="cls-13" x="897.84" y="125.07">veniam,</tspan><tspan class="cls-14" x="1080.3" y="125.07"> </tspan><tspan x="1103.48" y="125.07">quis</tspan><tspan class="cls-14" x="1199.08" y="125.07"> </tspan><tspan x="1222.25" y="125.07">nostrud</tspan><tspan class="cls-14" x="1396.06" y="125.07"> </tspan><tspan x="1419.24" y="125.07">exerci </tspan><tspan x="0" y="187.6">tation</tspan><tspan class="cls-15" x="127.48" y="187.6"> </tspan><tspan x="150" y="187.6">ullamcorper</tspan><tspan class="cls-16" x="422.23" y="187.6"> </tspan><tspan x="444.75" y="187.6">suscipit</tspan><tspan class="cls-15" x="618.51" y="187.6"> </tspan><tspan x="641.03" y="187.6">lobortis</tspan><tspan class="cls-16" x="809.02" y="187.6"> </tspan><tspan x="831.54" y="187.6">nisl</tspan><tspan class="cls-17" x="909.73" y="187.6"> </tspan><tspan x="932.25" y="187.6">ut</tspan><tspan class="cls-16" x="975.71" y="187.6"> </tspan><tspan x="998.23" y="187.6">aliquip</tspan><tspan class="cls-17" x="1148.89" y="187.6"> </tspan><tspan x="1171.4" y="187.6">ex</tspan><tspan class="cls-16" x="1226.44" y="187.6"> </tspan><tspan x="1248.96" y="187.6">ea</tspan><tspan class="cls-17" x="1306.93" y="187.6"> </tspan><tspan x="1329.44" y="187.6">commodo </tspan><tspan x="0" y="250.13">consequat.</tspan></text></g></g></svg>